<svg width="32" height="32" viewBox="0 0 32 32" fill="none" xmlns="http://www.w3.org/2000/svg">
<path d="M14.6433 27.2756V24.5084C13.5064 24.2509 12.525 23.7576 11.6991 23.0282C10.8732 22.2989 10.2672 21.2692 9.8811 19.9392L12.2622 18.9739C12.584 20.0036 13.0613 20.7866 13.6941 21.3228C14.3269 21.8591 15.1581 22.1273 16.1878 22.1273C17.0673 22.1273 17.8127 21.9288 18.4241 21.532C19.0355 21.1351 19.3411 20.5184 19.3411 19.6818C19.3411 18.931 19.1052 18.3357 18.6332 17.896C18.1613 17.4562 17.0673 16.9575 15.3512 16.3998C13.5064 15.8206 12.2407 15.1288 11.5543 14.3243C10.8679 13.5199 10.5246 12.5385 10.5246 11.3801C10.5246 9.98581 10.9751 8.90252 11.8761 8.13028C12.777 7.35803 13.6994 6.91828 14.6433 6.81102V4.10815H17.2175V6.81102C18.29 6.98263 19.1749 7.37412 19.8721 7.98548C20.5692 8.59684 21.0787 9.34228 21.4005 10.2218L19.0194 11.2514C18.7619 10.565 18.3973 10.0502 17.9253 9.70695C17.4534 9.36373 16.8099 9.19212 15.9947 9.19212C15.0509 9.19212 14.3323 9.40127 13.8389 9.81957C13.3455 10.2379 13.0988 10.7581 13.0988 11.3801C13.0988 12.088 13.4206 12.6458 14.0641 13.0534C14.7076 13.4609 15.8231 13.89 17.4105 14.3404C18.8907 14.7695 20.0115 15.4505 20.773 16.3837C21.5345 17.3168 21.9153 18.3947 21.9153 19.6175C21.9153 21.1405 21.4648 22.2989 20.5639 23.0926C19.6629 23.8863 18.5474 24.3796 17.2175 24.5727V27.2756H14.6433Z" fill="white"/>
</svg>
