<svg width="53" height="53" viewBox="0 0 53 53" fill="none" xmlns="http://www.w3.org/2000/svg">
<rect x="-0.000488281" width="52.0645" height="52.0645" rx="6" fill="#D9D9D9"/>
<rect x="-0.000488281" width="52.0645" height="52.0645" rx="6" fill="url(#paint0_linear_49_73)"/>
<path d="M30.0317 25.0322C30.3151 25.0322 30.5526 24.9364 30.7442 24.7447C30.9359 24.5531 31.0317 24.3156 31.0317 24.0322C31.0317 23.7489 30.9359 23.5114 30.7442 23.3197C30.5526 23.1281 30.3151 23.0322 30.0317 23.0322C29.7484 23.0322 29.5109 23.1281 29.3192 23.3197C29.1276 23.5114 29.0317 23.7489 29.0317 24.0322C29.0317 24.3156 29.1276 24.5531 29.3192 24.7447C29.5109 24.9364 29.7484 25.0322 30.0317 25.0322ZM22.0317 23.0322H27.0317V21.0322H22.0317V23.0322ZM18.5317 35.0322C17.9651 33.1322 17.4067 31.2364 16.8567 29.3447C16.3067 27.4531 16.0317 25.5156 16.0317 23.5322C16.0317 21.9989 16.5651 20.6989 17.6317 19.6322C18.6984 18.5656 19.9984 18.0322 21.5317 18.0322H26.5317C27.0151 17.3989 27.6026 16.9072 28.2942 16.5572C28.9859 16.2072 29.7317 16.0322 30.5317 16.0322C30.9484 16.0322 31.3026 16.1781 31.5942 16.4697C31.8859 16.7614 32.0317 17.1156 32.0317 17.5322C32.0317 17.6322 32.0192 17.7322 31.9942 17.8322C31.9692 17.9322 31.9401 18.0239 31.9067 18.1072C31.8401 18.2906 31.7776 18.4781 31.7192 18.6697C31.6609 18.8614 31.6151 19.0572 31.5817 19.2572L33.8567 21.5322H36.0317V28.5072L33.2067 29.4322L31.5317 35.0322H26.0317V33.0322H24.0317V35.0322H18.5317ZM20.0317 33.0322H22.0317V31.0322H28.0317V33.0322H30.0317L31.5817 27.8822L34.0317 27.0572V23.5322H33.0317L29.5317 20.0322C29.5317 19.6989 29.5526 19.3781 29.5942 19.0697C29.6359 18.7614 29.6984 18.4489 29.7817 18.1322C29.2984 18.2656 28.8734 18.4947 28.5067 18.8197C28.1401 19.1447 27.8734 19.5489 27.7067 20.0322H21.5317C20.5651 20.0322 19.7401 20.3739 19.0567 21.0572C18.3734 21.7406 18.0317 22.5656 18.0317 23.5322C18.0317 25.1656 18.2567 26.7614 18.7067 28.3197C19.1567 29.8781 19.5984 31.4489 20.0317 33.0322Z" fill="white"/>
<defs>
<linearGradient id="paint0_linear_49_73" x1="47.215" y1="2.85132" x2="-82.6673" y2="126.232" gradientUnits="userSpaceOnUse">
<stop stop-color="#4CAF50"/>
<stop offset="1" stop-color="#204921"/>
</linearGradient>
</defs>
</svg>
